<svg width="200" height="127" fill="none" xmlns="http://www.w3.org/2000/svg">
  <g filter="url(#a)">
    <path d="M33.35 94.15c-1.912 0-3.14-.08-3.367-.097l-1.018-.083-2.135-2.145.46-9.357 2.429.162c.052.004.157.008.308.008.636 0 1.157-.091 1.44-.18.11-.952.02-4.598-2.825-18.234-1.864-8.942-3.749-15.435-4.538-17.203-.472.056-1.137.293-1.555.513l-1.544.821-2.066-2.076-.035-.04c-.193-.214-.298-.332-1.57-2.787-1.14-2.203-1.442-3.417-1.508-3.737l-.291-1.455 1.161-.898c9.131-7.037 26.287-12.549 39.058-12.549 2.108 0 4.051.154 5.775.457 4.64.817 7.918 2.68 9.738 5.533l.03.046.026.047c1.505 2.655 1.528 5.55.062 8.374-2.755 5.317-10.398 9.567-16.323 12.197-5.707 2.531-11.276 4.223-14.98 4.981.149.66.29 1.31.423 1.948.18.864.587 2.968.902 4.63l.525.285c4.286-2.47 9.112-2.947 13.785-3.408.913-.09 1.775-.175 2.637-.277l.56-.57-.014-.032c-.24-.576-1.203-4.72-1.176-5.413l.05-1.513 1.399-.582c2-.833 4.412-1.274 6.969-1.274 1.172 0 2.337.094 3.464.277 2.645.428 5.018 1.694 6.678 3.568 1.014 1.145 1.698 2.438 2.027 3.791l.004-.004 2.7 2.715.22.442a31.474 31.474 0 0 0 3.555 5.52 57.559 57.559 0 0 0 2.606-5.102l.73-1.681.16.024c-.25-1.452-.429-2.27-.455-2.398l-.302-1.334 1.006-.93c.269-.247 1.238-1.012 3.35-1.444a.101.101 0 0 1 .025-.004c.06-.106.135-.214.224-.322l.62-.759h1.833l1.738 1.748.306.52c.178.287 1.292 2.064 2.009 2.953.49.61 1.04 1.179 1.523 1.638.331-.445.719-1 1.133-1.648.88-1.382 1.692-3.303 1.934-3.937l.347-.898 1.09-.52.082-.03c.201-.075 1.277-.447 2.908-.447h.083c1.271-.333 1.498-.333 1.703-.333.506 0 .992.179 1.37.505l.06.052.837.842a2.297 2.297 0 0 1 .207-1.052c.072-.17.24-.567.302-1.344.155-1.902.998-3.384 1.095-3.546l.608-1.05 1.219-.104c.132-.01.663-.05 1.476-.05 5.636 0 9.459 1.776 10.77 4.997 1.091 2.687.448 5.254-.207 7.738l1.74 1.75.236.522c.033.074.411.918.911 2.307.556-.287 1.28-.545 2.222-.722.219-.041.432-.074.641-.1.37-.347.851-.627 1.508-.627h.773l.333.289c.447-4.396 1.395-7.578 1.41-7.624l.452-1.532 1.685-.145h.025a13.09 13.09 0 0 1 3.614.35c.951.23 1.271.232 1.286.232.078-.006.136-.006.18-.006.415 0 .814.118 1.155.345l.178.116 2.009 2.02-.482 1.422a43.48 43.48 0 0 0-.566 1.93l.665.67.166.746c.022.11.084.416.163.969 1.616-2.295 2.505-6.165 2.716-7.5l.299-1.893 1.896-.104s.101-.006.287-.006c.605 0 1.85.07 3.363.543.496.156 1.169.349 1.562.399.178.023.591.075 1.023.384l.141.102 1.951 1.96-.422 1.39c-.037.123-.409 1.304-1.157 2.991.004 0 .008 0 .012-.002.18-.016.356-.03.527-.043.48-.474.936-.761 1.633-.761h.353l.777.274 1.956 1.966-.091 1.179c-.002.017-.015.2-.027.54 1.031-1.64 1.808-2.664 1.872-2.752l.401-.515.581-.237c.3-.12 1.389-.503 3.294-.555.348-.008.571-.035.705-.056.368-.306.833-.48 1.319-.48h.479l.74.364 1.924 1.937-.179 1.24c-.005.03-.401 2.898-.174 8.075.215 4.901.789 7.511.866 7.846l.459 1.792-1.652.868c-.252.136-1.293.62-3.48.807-.48.041-.93.06-1.346.06-1.388 0-2.157-.23-2.558-.424l-.453-.218-1.674-1.684-.105-.667a2.201 2.201 0 0 1-.004-.644l.043-.462c-.083.177-.163.354-.242.526l-.322.749-.726.386c-.246.133-1.236.603-3.325.91-.38.057-.742.1-1.083.13a6.644 6.644 0 0 1-.827.9c-1.593 1.442-3.015 1.84-3.414 1.928l-1.333.276-1.986-1.997-.153-.32a2.328 2.328 0 0 1-.069-.156c-.227-.573-1.45-3.473-3.689-5.535.013 1.304.008 2.127.006 2.366l-.01 1.18-.928.7c-.508.391-1.581.888-3.712.97-.182.005-.357.01-.525.01-1.583 0-2.55-.285-2.893-.408l-.655-.243-1.908-1.92.029-.71a43.461 43.461 0 0 0-2.768.418c-1.07.2-2.352.5-3.809.892l-5.977 1.873-2.625-2.644.563-2.646-.027-.116c-.176.048-.36.093-.552.135a8.597 8.597 0 0 1-1.78.193 6.05 6.05 0 0 1-1.622-.201l-.039-.01-1.005-.335-.204-.356a12.231 12.231 0 0 1-4.357-.599l.13.857-1.327.823c-.326.202-1.389.744-3.476.815-.178.006-.349.008-.509.008-1.758 0-2.703-.34-3.184-.628l-.352-.21-1.657-1.664-.071-.746c-.024-.269.007-.466.029-.607.052-.316.122-.82.19-1.497-.977.88-1.622 1.09-2.234 1.09-.521 0-1.167-.27-1.841-.674.163 1.7.248 2.853.273 3.192l.076 1.166-.83.767c-.49.451-1.514 1.04-3.622 1.316a11.71 11.71 0 0 1-1.515.106c-1.029 0-1.655-.169-1.936-.268l-.637-.235-1.097-1.104c-.43.464-.866.908-1.305 1.335-5.834 5.667-9.71 7.675-9.87 7.756l-1.205.624-1.145-.75c-.013-.009-1.97-1.422-2.823-2.97-.379-.684-.5-1.397-.39-2.054-1.18.39-2.492.603-3.905.603-.368 0-.738-.015-1.098-.042-2.26-.174-4.77-.823-7.074-1.827l-1.013-.332c-.101-.032-.21-.073-.343-.119a46.883 46.883 0 0 0-2.21-.752l-.61.388-.849-.503c-1.035.108-2.135.16-3.352.16-1.542 0-3.08-.083-4.568-.164a144.15 144.15 0 0 0-2.542-.122l-1.302.48-.26-.33c.198 1.267.361 2.358.481 3.227.06-.037.12-.075.172-.112l1.42-.996 1.232 1.227 1.48 1.49.857 9.78-1.96.485c-.417.1-4.065.956-8.504 1.322a73.49 73.49 0 0 1-5.748.233Zm121.268-26.372-.012-.445c-.066.081-.134.162-.202.243.074.067.144.133.214.202Zm-92.502-5.352c.233.532.512 1.072.816 1.648-.006-1.01.095-1.47.196-1.758l.476-1.39c-.271.047-.525.095-.75.139l.506.421-1.244.94Zm4.365-1.877c-.804.05-1.792.191-2.648.339l1.263-.137c.55-.06 1.007-.13 1.385-.202Zm45.994-5.582c-.004.066-.025.467-.042 1.19.368-.18.749-.347 1.139-.494l-1.074-1.081-.023.385ZM35.839 41.31c.508 1.493 1.209 3.675 1.957 6.252 4.907-1.216 12.915-4.712 14.366-7.68.18-.365.163-.538.079-.712-.63-.736-2.022-1.141-3.94-1.141-3.369-.002-7.926 1.21-12.462 3.281Z" fill="#fff"/>
    <path d="M174.117 78.326c-.007-.027-.684-2.798-.924-8.25-.24-5.455.188-8.436.192-8.465l.031-.21-.949-.954c-.031-.014-.037.484-1.969.536-1.676.046-2.536.39-2.571.404l-.073.029-.047.06c-.035.046-3.21 4.232-5.33 9.448-.036-.422-.069-.85-.098-1.282-.32-4.734-.124-7.357-.121-7.384l.016-.22-.949-.955c-.043-.016-.706.728-.706.728-.385 0-.809.023-1.259.066-1.658.16-2.499.516-2.536.53l-.165.073-.005.183a107.211 107.211 0 0 0 .368 11.026c-1.281-1.767-3.201-4.07-5.605-5.942 4.76-4.631 6.891-11.465 6.914-11.536l.06-.197-.951-.954c-.046-.033-.366.017-2.001-.495a9.583 9.583 0 0 0-2.751-.449c-.113 0-.173.005-.173.005l-.23.012-.037.229c-.008.054-.866 5.462-3.253 8.63a11.937 11.937 0 0 1-3.17 2.894c-.217-3.456-.503-4.803-.515-4.861l-.035-.158-.949-.954c-.012-.004-.2.333-.291.553.541-2.32 1.056-3.87 1.066-3.901l.07-.208-.95-.954c-.044-.03-.302.116-1.972-.289a11.012 11.012 0 0 0-2.561-.305c-.312 0-.498.014-.504.014l-.194.017-.056.187c-.019.062-1.84 6.254-1.505 13.07a87.785 87.785 0 0 0 .075 1.306l.008.112c.004.056.008.112.01.17a23.92 23.92 0 0 0-1.281.125l-.845-5.017-.949-.954c-.062-.054-.506.56-.506.56-.379 0-.809.043-1.276.13-1.942.362-2.372 1.062-2.416 1.141l-.045.087.845 5.022c-.217.052-.558.14-.992.266l-.016-.091a2.454 2.454 0 0 0-.025-.146c-.006-.035-.015-.066-.023-.096-.967-5.052-2.701-8.914-2.72-8.953l-.08-.177-.949-.956c-.054.002-.504 1.037-1.98 1.571.227-1.467.57-2.768.88-3.953.633-2.398 1.181-4.47.329-6.568-1.31-3.223-6.109-3.703-8.856-3.703-.781 0-1.282.04-1.304.041l-.147.013-.074.129a6.929 6.929 0 0 0-.813 2.656c-.117 1.438-.523 2.057-.504 2.114l.949.953.244-.051a14.549 14.549 0 0 1 2.655-.269c1.457 0 2.474.298 2.941.86.292.352.381.811.273 1.402a32.04 32.04 0 0 1-.235 1.168 11.747 11.747 0 0 0-2.018-.166c-.632 0-1.269.047-1.841.135-2.689.415-4.931 1.642-6.382 3.313-.066-3.538.045-5.43.045-5.454l.008-.142-.95-.953c-.056-.048-1.48.334-1.48.334-1.519-.056-2.48.297-2.517.312l-.265.127-.041.106c-.009.025-.947 2.465-2.129 4.323-1.153 1.808-2.294 3.188-2.623 3.404-.415-.197-2.106-1.627-3.377-3.207-.794-.985-1.947-2.826-2.168-3.18l-.186-.316-.949-.954c-.024-.006.147.867.147.867-.47 0-1.002.06-1.581.179-1.711.349-2.34.914-2.364.937l-.122.112.037.163c.006.024.432 1.92.95 5.511a7.027 7.027 0 0 0-1.196-.338l-.22-.036-.088.204c-.017.042-1.765 4.049-4.202 7.734-3.102-3.166-5.014-6.662-5.702-8.046l-.072-.143-.949-.954c-.012-.002.054.919.054.919-.587 0-1.48.039-2.412.228l-.03.006c.197-.422.336-.873.414-1.35.292-1.82-.295-3.665-1.653-5.199-1.344-1.517-3.282-2.546-5.463-2.9a19.547 19.547 0 0 0-3.135-.248c-2.288 0-4.425.384-6.18 1.116l-.17.07-.005.185c-.005.106.791 3.99 1.017 4.53l.948.953.184-.04c.031-.006 3.16-.681 5.095-.681.209 0 .394.008.558.025 1.283.122 2.14.584 2.416 1.3.207.54.064 1.194-.366 1.668-.597.659-2.094 1.133-4.326 1.372l-.18.018-.057.173c-.027.079-.157.571-.015 2.504.07.948-.566 1.222-.471 1.617 0 0 .92.909.948.956l.143.01c3.904.302 4.954 1.277 5.506 2.285.287.522.296 1.162.02 1.625-.404.69-1.365.973-2.703.78-1.176-.169-3.559-1.127-5.076-1.773.021-.084.046-.167.064-.246l.019-.085c-1.36-.097-3.003-1.218-3.69-2.278-.526-.814.768-1.565 1.288-.756.197.303.556.632.97.906-.281-.443-.447-.983-.536-1.578a13.31 13.31 0 0 0-.415-1.868c-.504-.954-1-1.91-1.337-2.945-.108-.333.012-.597.223-.755-.054-.045-.105-.091-.165-.133a.838.838 0 0 1-.12-.102c-.283.287-.688.462-1.129.514-5.346.621-11.162.723-15.91 3.579a1.403 1.403 0 0 1-1.434.043c.085.242.221.441.467.601.802.528.056 1.827-.752 1.297a3.36 3.36 0 0 1-.575-.478 11.6 11.6 0 0 0-.072 1.505c.002.147.008.295.016.436-.167-.947-.339-1.895-.508-2.826l.002-.01a1.824 1.824 0 0 1-.072-.283c-.114-.695-1.003-5.371-1.286-6.732-.27-1.297-.579-2.663-.92-4.06 3.38-.39 10.04-2.259 16.665-5.197 4.603-2.044 12.715-6.221 15.325-11.255 1.139-2.197 1.133-4.34-.025-6.383-1.496-2.344-4.309-3.895-8.356-4.608-11.74-2.063-32.742 3.619-43.22 11.695l-.14.109.034.174c.009.044.224 1.081 1.319 3.197.992 1.916 1.226 2.305 1.269 2.355l.95.954.197-.104c.785-.416 3.022-1.289 3.933-.341.916.95 3.224 9.224 5.146 18.442 2.441 11.705 3.34 18.32 2.67 19.665l-.012.03c-.434 1.172-2.848 1.271-3.74 1.211l-.333-.023-.313 6.325.95.954.239.019c.02.002 1.234.093 3.222.093 1.488 0 3.41-.052 5.587-.23 4.462-.368 8.143-1.26 8.18-1.268l.237-.059-.636-7.253-.949-.954s-1.812 1.293-2.61.69c-.401-.302-.635-.755-.715-1.385a177.007 177.007 0 0 0-.769-5.133c.06.073-.025-.241.008-.495.002-.02.002-.112-.002-.206a2.663 2.663 0 0 1-.283-.958c-.124-.19-.405-2.467-.568-3.415.024.084.051.169.078.256l.091.27a11.511 11.511 0 0 0 .816 1.812.696.696 0 0 1 .757.159c.26.247.455.548.637.86.266-.318.77-.353 1.1-.052.21.193.398.414.576.64.173-.064.37-.097.593-.091 3.517.123 7.037.515 10.55.108.265-.031.517.037.739.166a.825.825 0 0 1 .601-.108c.837.156 3.375 1.114 3.226 1.048l1.12.368c2.055.906 4.394 1.538 6.498 1.7.315.025.63.035.939.035 4.563 0 7.721-2.51 7.862-6.25.093-2.469-1.373-5.54-4.818-7.13a9.146 9.146 0 0 0 1.608-.795 49.95 49.95 0 0 0 5.86 7.724 49.12 49.12 0 0 0 2.068 2.088c-3.201 3.324-6.07 5.381-6.099 5.402l-.122.088.002.151c0 .042-.762.335-.26 1.245.568 1.031 2.114 2.216 2.145 2.236l.139.092.146-.077c.153-.077 3.803-1.991 9.371-7.4 1.87-1.818 3.448-3.784 4.683-5.523.278 3.148-.655 4.017-.655 4.038l.949.954.186.069c.041.014.428.15 1.248.15.385 0 .804-.032 1.249-.088 1.854-.243 2.43-.732 2.49-.786l.101-.093-.008-.138c-.002-.035-.236-3.464-.822-8.199 1.794 1.848 4.038 3.432 4.451 3.432.463 0 2.619-2.058 4.461-5.25.183 5.148-.393 8.11-.389 8.149l.949.954.124.075c.062.037.702.395 2.573.33 1.721-.058 2.432-.488 2.461-.507l.162-.1-.029-.189c-.002-.018-.182-1.176-.381-3.45 1.579 1.46 3.853 2.361 6.374 2.361a10.618 10.618 0 0 0 1.639-.127l.473.828.182.06c.017.004.408.133 1.087.133.432 0 .885-.05 1.352-.15 1.494-.318 2.176-.904 2.205-.929l.114-.1-.019-.151-.004-.036c.306 1.031.591 2.118.827 3.228l-.422 1.98.949.957 4.822-1.511a53.938 53.938 0 0 1 4.007-.94 50.282 50.282 0 0 1 3.921-.552l2.36-.158c-.02 2.026-1.06 2.205-1.06 2.22l.949.953.202.075c.035.013.943.347 2.65.279 1.866-.071 2.486-.505 2.55-.555l.112-.085.002-.142c0-.025.027-2.367-.081-6.204 1.123.443 2.449 1.357 3.289 2.089 2.996 2.617 4.449 6.5 4.472 6.547l.949.954.217-.046c.047-.01 1.165-.26 2.474-1.442a4.474 4.474 0 0 0 1.037-1.389l.114.002c.517 0 1.139-.052 1.843-.158 1.865-.274 2.625-.67 2.656-.687l.087-.046.039-.09c.99-2.225 2.441-4.734 4.318-7.465.006.31.012.617.023.916.15 4.839-.209 7.603-.205 7.639l.951.954.134.064c.045.023.49.22 1.668.22.355 0 .75-.018 1.17-.054 1.887-.162 2.664-.559 2.697-.575l.2-.106-.049-.21ZM33.262 40.246c8.197-4.133 17.848-6.053 20.698-2.237.521.883.538 1.795.054 2.789-2.16 4.423-13.376 8.555-17.685 9.178-1.32-4.776-2.648-8.654-3.067-9.73Zm86.1 24.487a3.122 3.122 0 0 1-.831.212c-.689.075-1.358-.077-1.883-.428-.511-.341-.825-.83-.885-1.376-.124-1.15.914-2.21 2.315-2.363.116-.013.227-.019.341-.019.486 0 .959.114 1.36.324a32.95 32.95 0 0 0-.417 3.65Z" fill="#322F82"/>
    <path d="M119.659 71.897c-.643 0-1.004-.116-1.027-.125l-.066-.022-.004-.071s-.025-.385-.052-1.043l.207-.009c.02.489.039.823.047.965.223.054 1 .203 2.17-.046 1.191-.254 1.827-.686 1.989-.809-.06-.498-.459-4.08-.201-7.694.163-2.286.663-4.182 1.104-5.853.64-2.427 1.147-4.343.345-6.318-1.573-3.874-8.999-3.47-9.714-3.423-.122.229-.639 1.25-.736 2.444-.095 1.156.219 2.274.316 2.586.647-.125 4.353-.771 5.756.605.463.453.627 1.078.484 1.858a39.276 39.276 0 0 1-.298 1.452l-.202-.045c.095-.428.202-.936.295-1.445.129-.707-.014-1.27-.423-1.673-1.428-1.4-5.618-.54-5.661-.532l-.089.019-.031-.086c-.019-.054-.467-1.357-.353-2.758.113-1.4.762-2.531.789-2.579l.027-.046.054-.004c.02-.002 2.083-.168 4.325.179 2.991.464 4.944 1.63 5.651 3.37.829 2.038.314 3.983-.337 6.448-.438 1.663-.936 3.546-1.097 5.816-.275 3.855.202 7.673.206 7.713l.007.054-.042.037c-.027.023-.674.58-2.124.89a6.29 6.29 0 0 1-1.315.145Z" fill="#1D1D1B"/>
    <path d="M124.266 50.835c-.134-.372-.612-1.372-2.11-2.224-1.499-.852-3.266-1.05-4.047-1.162-.781-.112-2.131-.137-2.131-.137l-1.585.04s-.475 1.103-.62 1.606c-.145.5-.172 1.305-.138 2.045.033.74.332 1.598.332 1.598s.872-.201 1.823-.24a12.485 12.485 0 0 1 2.46.11c.94.122 1.335.569 1.67.924.337.358.295 1.2.295 1.2l-.339 1.78s-1.279-.176-2.203-.211c-.922-.036-1.831.13-2.92.353-1.092.22-1.877.65-2.834 1.143-.957.493-1.434 1.019-2.28 1.858-.845.84-1.196 2.023-1.457 2.677-.26.657-.38 2.172-.109 2.989.271.819.63 1.962 1.248 2.619.616.657.631.81 1.802 1.617a8.25 8.25 0 0 0 2.476 1.116s1.315.272 2.532.361c1.215.09 2.48-.245 2.48-.245l.052 1.02s.707.186 1.813.059c1.105-.125 1.839-.526 1.839-.526l.717-.424s-.231-2.573-.26-3.483c-.029-.91.006-3.438.078-4.56.071-1.123.364-2.55.364-2.55s.442-1.942.469-2.04c.025-.097.626-1.804.912-3.897.285-2.086-.193-3.046-.329-3.416Zm-5.157 9.419a4.33 4.33 0 0 1-.173.863l-.008.024c-.013.086-.021.127-.015.044l-.002.004a13.66 13.66 0 0 1-.041.401l-.029.21c.004.021.008.044.008.069-.002.636.052 1.434-.213 2.026-.114.256-.5.327-.878.341a1.922 1.922 0 0 1-.294.056 2.883 2.883 0 0 1-1.969-.557 1.74 1.74 0 0 1-.298-.28 1.075 1.075 0 0 1-.386-.416c-.089-.177-.176-.355-.207-.553-.021-.125-.027-.251-.021-.372-.014-.091-.027-.154-.023-.118a1.58 1.58 0 0 1 .085-.632c.114-.316.285-.584.498-.836l.013-.014c.029-.031.053-.065.082-.098.228-.247.513-.424.821-.559.008-.004.018-.01.029-.013.638-.28 1.471-.532 2.141-.207a.251.251 0 0 1 .116.008c.32.09.822.175.764.609Z" fill="#FFEC00"/>
    <path d="M119.663 72.08c-.68 0-1.07-.127-1.087-.133l-.182-.06-.012-.191c0-.005-.017-.264-.037-.711a10.701 10.701 0 0 1-2.063.201c-4.489 0-8.187-2.851-8.598-6.634-.444-4.086 3.044-7.759 8.118-8.54.575-.09 1.212-.135 1.842-.135.703 0 1.395.058 2.017.166.095-.44.172-.817.236-1.166.107-.592.018-1.05-.273-1.4-.467-.564-1.484-.861-2.941-.861-1.366 0-2.644.264-2.656.268l-.244.052-.083-.237c-.02-.056-.481-1.395-.363-2.833a6.902 6.902 0 0 1 .814-2.656l.074-.129.147-.012c.021-.003.521-.044 1.304-.044 2.745 0 7.548.482 8.856 3.704.852 2.095.304 4.167-.328 6.567-.436 1.655-.932 3.53-1.091 5.778-.273 3.84.2 7.639.206 7.678l.019.152-.116.1c-.029.024-.711.61-2.205.928a6.654 6.654 0 0 1-1.354.148Zm-.725-.636c.153.03.399.062.727.062.391 0 .806-.045 1.232-.135 1.006-.216 1.6-.559 1.833-.717-.089-.783-.434-4.188-.188-7.621.163-2.303.666-4.207 1.11-5.886.632-2.395 1.131-4.286.351-6.202-1.227-3.022-6.233-3.349-8.329-3.349-.51 0-.901.02-1.103.032-.168.33-.583 1.238-.668 2.284-.081.979.143 1.933.262 2.36.455-.08 1.447-.23 2.518-.23 1.655 0 2.792.36 3.377 1.066.401.485.533 1.112.397 1.871-.079.43-.174.894-.3 1.459l-.062.274-.275-.056a10.985 10.985 0 0 0-2.178-.206c-.604 0-1.211.044-1.755.13-4.766.735-8.05 4.137-7.639 7.912.381 3.492 3.834 6.125 8.032 6.125.37 0 .744-.02 1.116-.06.374-.042.763-.109 1.155-.198l.333-.075.014.343c.015.362.029.642.04.817Z" fill="#322F82"/>
    <path d="M118.787 64.631c-.052.38-.097 1.411-.097 1.411s-.132-.239-.205-.675c-.072-.435-.113-.842-.107-.967-.236.08-.482.131-.734.158-.82.092-1.624-.093-2.261-.52-.653-.436-1.056-1.072-1.135-1.789-.159-1.463 1.104-2.808 2.819-2.995.794-.087 1.606.09 2.228.485l.162.103-.054.318c-.459 2.503-.583 4.21-.616 4.471Zm-1.319-4.826c-.113 0-.227.006-.341.019-1.401.156-2.438 1.214-2.314 2.363.06.547.374 1.035.884 1.376.527.351 1.197.503 1.885.428.289-.031.566-.102.829-.212.074-1.247.211-2.442.417-3.652a2.938 2.938 0 0 0-1.36-.322Z" fill="#322F82"/>
    <path d="M69.143 33.542c-.029-.509-.254-1.19-.353-1.475-.1-.285-.447-.944-.447-.944s-.393-.638-1.116-1.36c-.723-.72-1.463-1.157-2.62-1.774-1.158-.617-2.694-.975-3.84-1.256-1.148-.28-3.155-.411-3.155-.411l-2.57-.11s-1.67.02-2.508.077c-1.12.077-5.032.447-5.97.58-.941.133-4.351.794-4.351.794s-4.41 1.087-5.364 1.359c-.954.272-4.654 1.51-5.394 1.781-.74.27-5.431 2.263-6.041 2.552-.608.29-4.19 2.224-4.19 2.224l-3.358 2.193-.682.511s.339 1.044.533 1.522c.195.478 1.201 2.404 1.201 2.404l1.298 1.927.29.353s.516-.239.832-.368c.316-.126.98-.303 1.424-.388.447-.085.937-.025 1.5.118.565.146.788.757.989 1.166.2.41.723 1.908.723 1.908l.926 3.022 1.15 4.317.944 3.939.779 3.52.608 2.92.599 3.008.616 3.267.543 3.186s.56 4.066.59 4.348c.028.285.16 1.568.144 2.817-.019 1.247-.339 1.687-.725 2.026-.387.339-1.29.563-1.883.671-.593.109-1.59.069-1.59.069l-.039.22.569 6.48.952.053 2.445.041s4.024-.133 5.624-.253c1.6-.119 4.468-.568 5.206-.694.738-.127 2.672-.545 2.672-.545l-.584-6.665-1.098.093c-.364.031-1.17-.031-1.552-.11-.382-.077-.746-.328-1.106-.644-.36-.316-.452-.848-.51-1.083-.058-.237-.209-1.48-.209-1.48l-.864-5.514-1.273-7.395-1.098-5.892-1.279-6.005-.23-1.083 1.71-.239 1.875-.39 2.934-.78 3.22-1.026 4.138-1.503 4.39-1.925s3.995-2.051 5.3-2.791c1.305-.74 4.073-2.76 4.714-3.278.64-.515 1.938-1.85 2.45-2.44.513-.59 1.313-1.775 1.737-2.893.42-1.116.403-2.242.374-2.752Zm-15.43 5.113c-.02.077-.04.154-.063.227a.293.293 0 0 1 .015.141c-.075.534-.471 1.185-.771 1.623-.033.048-.07.096-.108.142a2.67 2.67 0 0 1-.593.696c-.006.006-.012.008-.018.012l-.044.048-.023.04a.253.253 0 0 1-.121.12c-.058.06-.116.125-.172.185-.017.019-.035.035-.054.054-.01.021-.022.04-.033.06a.225.225 0 0 1-.175.138c-.2.172-.412.324-.616.49l-.002.002a5.3 5.3 0 0 0-.259.225.3.3 0 0 1-.084.056l-.224.183c-.213.17-.44.318-.67.455-.169.143-.34.283-.545.399-.426.241-.829.503-1.25.752a.255.255 0 0 1-.07.03c-.17.118-.34.234-.526.326-.39.191-.806.343-1.184.555-.287.16-.585.284-.882.405-.127.064-.25.133-.366.212a2.772 2.772 0 0 1-1.065.46c-1.304.675-2.775 1.145-4.2 1.512a.238.238 0 0 1-.15.081c-.397.065-.748.283-1.139.391-.355.098-.709.135-1.066.212-.623.135-1.224.287-1.852.374a.216.216 0 0 1-.087.013.207.207 0 0 1-.234-.154.257.257 0 0 1-.012-.24.23.23 0 0 1-.027-.072c-.269-1.164-.72-2.288-.973-3.452-.035-.096-.08-.191-.12-.287a3.072 3.072 0 0 1-.108-.172c-.134-.25-.188-.611-.256-.886-.09-.374-.182-.75-.285-1.122a.693.693 0 0 0-.031-.11c-.492-.994-.554-2.145-1.085-3.126a.292.292 0 0 1-.033-.102.227.227 0 0 1-.102-.106c-.115-.145-.064-.41.151-.451l.01-.006c.916-.412 1.836-.84 2.764-1.241a.415.415 0 0 1 .06-.035c.097-.044.194-.081.293-.117a37.321 37.321 0 0 1 1.705-.677c.184-.09.372-.17.57-.231.547-.164 1.084-.347 1.631-.495a.249.249 0 0 1 .151-.097c1.943-.462 3.931-1.241 5.963-1.316.798-.112 1.68-.156 2.476-.104.852.058 1.848.083 2.666.353.802.264 1.658.699 2.261 1.304.531.532.705 1.147.926 1.851a.25.25 0 0 1-.027.22.27.27 0 0 1 .062.252Z" fill="#EB6224"/>
    <path d="m34.962 49.652-.064-.237c-1.347-4.903-2.699-8.833-3.092-9.862-.243.125-1.8.574-1.8.574s.449-.52 1.645-1.146c7.74-4.05 18.544-6.692 21.83-2.257l.016.025c.627 1.052.656 2.178.083 3.349-2.325 4.76-14.046 9.005-18.372 9.527l-.245.027Zm-2.65-10.36c.42 1.076 1.747 4.954 3.068 9.73 4.31-.621 15.526-4.753 17.685-9.178.486-.993.468-1.906-.053-2.79-2.85-3.815-12.502-1.895-20.7 2.237Z" fill="#322F82"/>
    <path d="M32.402 91.118c-1.986 0-3.202-.093-3.222-.093l-.24-.019-.639-7.279.333.023c.893.06 3.307-.04 3.74-1.211l.013-.03c.67-1.344-.23-7.96-2.67-19.665-1.922-9.218-4.23-17.492-5.146-18.442-.912-.948-3.15-.077-3.936.34l-.196.105-.149-.166c-.043-.05-1.078-1.227-2.07-3.141-1.096-2.116-1.31-3.155-1.32-3.199l-.034-.174.14-.108c10.477-8.077 31.481-13.76 43.219-11.693 4.048.71 6.86 2.26 8.356 4.607 1.16 2.041 1.163 4.186.024 6.383-2.61 5.036-10.722 9.212-15.325 11.255-6.626 2.939-13.285 4.807-16.664 5.198.339 1.397.649 2.762.92 4.059 1.353 6.489 3.41 18.537 3.955 22.794.081.63.317 1.083.715 1.384.798.6 2.096.493 3.26.31l.301-.048.637 7.253-.238.059c-.037.008-3.718.9-8.18 1.267a69.717 69.717 0 0 1-5.584.231Zm-2.937-.65c.89.052 4.175.201 8.476-.154a59.646 59.646 0 0 0 7.853-1.197l-.539-6.154c-1.2.168-2.495.207-3.388-.464-.522-.395-.839-.99-.94-1.769-.545-4.246-2.598-16.272-3.95-22.75a134.06 134.06 0 0 0-.991-4.36l-.079-.322.329-.032h.006l.016-.002c3.224-.303 10.018-2.18 16.793-5.185 7.83-3.475 13.176-7.379 15.05-10.995 1.044-2.014 1.042-3.972-.006-5.822-1.4-2.192-4.082-3.656-7.968-4.34-11.555-2.032-32.2 3.534-42.625 11.471.104.364.416 1.32 1.222 2.877a17.37 17.37 0 0 0 1.852 2.86c.733-.35 3.199-1.38 4.402-.131 1.153 1.197 3.588 10.54 5.295 18.724 3.317 15.906 3.096 19.061 2.629 20.026-.566 1.492-3.061 1.594-3.977 1.581l.54 6.138Z" fill="#322F82"/>
    <path d="m91.363 74.27-.18-3.437-.288-3.365-.533-4.57-.614-3.953-.566-3.033s.66-.47 1.403-.66c.745-.192 1.594-.375 2.092-.375s.876.046.876.046l.963 1.52s1.406 2.138 2.474 3.167c1.069 1.029 2.369 2.028 2.369 2.028l.184.021.182-.125s1.046-1.112 1.678-2.03c.632-.921 1.738-2.715 2.16-3.633.423-.919.924-2.12.924-2.12s.733-.285 1.422-.327c.688-.04 1.732-.041 1.732-.041l1.066.25.477.217s-.068 2.424-.068 3.043c0 .62.048 3.856.087 4.847.039.99.318 5.142.329 5.953.01.81.479 4.624.479 4.624l-.539.212s-.424.152-1.054.2c-.631.047-1.677.08-2.247-.005-.568-.083-.913-.261-.913-.261l-.333-5.178-.238-4.736s-.537 1.008-1.025 1.745c-.49.738-1.236 1.85-1.918 2.596-.682.746-1.43 1.436-1.43 1.436l-.325.225-.225-.106s-1.364-.908-2.017-1.432c-.653-.526-1.935-1.742-1.935-1.742l-.665-.704s.235 1.951.34 2.914c.106.962.422 4.198.422 4.198l.151 1.862s-.21.285-.822.451c-.614.164-2.464.401-2.464.401l-.998-.041-.413-.081Z" fill="#5CC4F0"/>
    <path d="M110.286 72.278c-.006-.032-.477-3.095-.746-9.1-.269-6.006-.078-9.276-.076-9.307l.008-.143-.108-.092c-.055-.047-.587-.465-2.323-.528-1.519-.056-2.478.298-2.515.312l-.264.127-.042.108c-.01.025-.946 2.465-2.129 4.323-1.153 1.808-2.294 3.188-2.622 3.404-.416-.197-2.106-1.627-3.377-3.206-.794-.988-1.947-2.827-2.168-3.18l-.187-.318-.115-.03c-.025-.006-.25-.06-.686-.06-.47 0-1.003.06-1.582.179-1.71.35-2.34.914-2.364.937l-.122.115.037.162c.009.03.724 3.227 1.435 9.195.709 5.969.74 9.07.742 9.099l.002.2.186.068c.041.017.428.15 1.248.15.385 0 .804-.03 1.248-.088 1.852-.243 2.431-.731 2.49-.787l.102-.094-.01-.137c-.002-.035-.236-3.463-.823-8.2 1.794 1.848 4.039 3.432 4.452 3.432.463 0 2.617-2.058 4.46-5.25.184 5.148.542 8.92.548 8.96l.014.143.124.075c.062.038.703.395 2.574.33 1.719-.058 2.432-.488 2.461-.506l.161-.1-.033-.194Zm-2.612.222c-1.251.041-1.895-.117-2.139-.2-.073-.802-.381-4.383-.54-9.04-.008-.23-.014-.456-.023-.68.319-.805.244-1.707.244-1.707l-.279.547v-.004l-.504.968c-1.788 3.436-3.978 5.568-4.468 5.845-.49-.214-2.799-1.813-4.582-3.835v-.002l-1.259-1.461s.157 1.004.732 1.723c.583 4.53.853 8.027.911 8.808-.223.131-.825.41-2.077.576a9.337 9.337 0 0 1-1.176.083c-.415 0-.703-.037-.87-.069-.02-.812-.135-3.838-.742-8.94-.618-5.197-1.242-8.306-1.403-9.071.24-.156.839-.478 1.967-.709a7.48 7.48 0 0 1 1.468-.166c.202 0 .349.013.44.025l.062.106c.227.364 1.397 2.232 2.211 3.244 1.155 1.437 3.3 3.434 3.832 3.434.738 0 3.067-3.646 3.092-3.681 1.085-1.704 1.943-3.818 2.139-4.319l.025-.012c.103-.036.973-.32 2.286-.273 1.114.042 1.657.233 1.866.333-.035.756-.151 3.932.085 9.19.229 5.149.609 8.154.721 8.952-.277.098-.916.297-2.019.335Z" fill="#322F82"/>
    <path d="M80.975 73.055s-1.64-1.61-2.177-2.205c-.537-.595-2.209-2.578-2.343-2.75-.135-.17-2.092-2.795-2.673-3.706-.578-.912-1.28-2.118-1.28-2.118s1.032-.5 1.425-.632c.39-.13 1.684-.474 2.337-.534.654-.062 1.927.023 1.927.023s.709 1.349.957 1.767c.248.418 1.663 2.61 2.15 3.244.485.634 2.893 3.353 2.893 3.353l1.335-2.114s1.67-2.985 2.114-3.9c.444-.914.97-2.055.97-2.055s1.351.347 2.002.686c.651.339 1.724 1.002 2.164 1.384.44.385.862.8.862.8l-1.15 2.054s-1.184 1.914-1.835 2.814c-.65.9-1.901 2.567-2.73 3.486-.83.918-2.997 3.084-3.67 3.69-.676.608-3.772 3.177-3.772 3.177s-2.45 1.758-2.784 1.968c-.337.21-1.098.653-1.098.653s-.343-.223-.622-.56c-.279-.336-.818-1.261-.818-1.261s-.221-.634-.26-.923a8.353 8.353 0 0 1-.054-.503l2.213-1.742 2.398-2.16 1.731-1.776-.212-.16Z" fill="#E73443"/>
    <path d="M93.85 64.112c-.036-.044-.946-1.048-2.434-1.898-1.492-.852-2.71-1.058-2.761-1.066l-.22-.036-.088.204c-.018.042-1.767 4.047-4.202 7.734-3.102-3.166-5.014-6.664-5.7-8.046l-.072-.143-.16-.015c-.01 0-.289-.023-.735-.023-.587 0-1.48.04-2.412.227-1.618.326-2.677.96-2.72.987l-.238.144.137.243c.603 1.07 2.854 4.865 6.465 8.748a45.72 45.72 0 0 0 2.07 2.089c-3.2 3.323-6.07 5.38-6.099 5.401l-.121.088.002.151c0 .042.02 1.013.523 1.923.568 1.03 1.33 1.538 1.362 1.559l.138.09.147-.076c.153-.079 3.803-1.99 9.37-7.399 4.882-4.743 7.765-10.512 7.794-10.57l.087-.175-.132-.141Zm-8.144 10.477c-4.87 4.73-8.327 6.792-9.082 7.216a4.36 4.36 0 0 1-1.043-1.258c-.327-.59-.416-1.23-.443-1.508.604-.447 3.229-2.44 6.103-5.433a4.393 4.393 0 0 0 1.315.521l-1.319-1.22a46.257 46.257 0 0 1-2.11-2.124c-3.323-3.575-5.479-7.07-6.24-8.386a9.149 9.149 0 0 1 2.295-.784 12.085 12.085 0 0 1 2.831-.203c.777 1.536 2.78 5.112 5.98 8.292l.243.243.192-.284c2.237-3.322 3.94-6.99 4.349-7.902a9.21 9.21 0 0 1 2.36.954 10.45 10.45 0 0 1 2.158 1.642c-.525 1.001-3.257 6.027-7.59 10.234Z" fill="#322F82"/>
    <path d="m59.974 75.202-1.461-.827-.618-.45 1.509-2.207 1.601-1.993 1.85.803s2.315.941 3.086 1.176c.77.235 1.823.534 2.468.474.645-.06 1.358-.094 1.736-.547.378-.453.67-.854.6-1.474-.069-.62-.484-1.463-1.173-1.966-.688-.503-1.69-.864-2.447-1.006-.756-.14-2.364-.324-2.364-.324l-.118-.386s-.24-1.578-.273-2.378c-.033-.8.006-2.004.006-2.004L65.544 62l1.492-.329s.804-.28 1.257-.507c.45-.226.901-.781 1-1.089.1-.31.215-.935.062-1.272-.153-.336-.423-.858-1.23-1.218-.805-.36-1.671-.4-2.36-.361-.688.04-2.587.272-2.587.272l-2.247.41s-.364-.541-.455-.695c-.088-.154-.686-1.295-.853-1.82-.168-.526-.438-1.805-.438-1.805l-.058-.835s1.227-.437 2.236-.694c1.007-.26 2.929-.387 3.32-.393.39-.006 2.078.069 3.033.156.953.087 2.282.467 2.9.765.618.297 1.895.95 2.59 1.727.692.777 1.16 1.264 1.46 2.024.3.76.524 1.453.547 1.966.022.512.084 1.318-.286 2.299-.37.983-.73 1.407-1.18 1.802-.45.397-1.397 1.064-2.027 1.326-.629.264-1.222.478-1.222.478l.027.052s1.07.445 1.56.771 1.422 1.02 1.85 1.542c.428.522 1.218 1.517 1.476 2.474.258.954.527 2.024.269 3.215-.259 1.19-.643 2.01-1.406 2.793-.762.784-1.401 1.17-2.447 1.634-1.046.463-2.86.802-4.64.615-1.78-.187-3.803-.709-4.654-1.022-.852-.32-2.559-1.08-2.559-1.08Z" fill="#FFEC00"/>
    <path d="M71.245 64.247c2.428-.925 3.877-2.482 4.205-4.538.292-1.82-.295-3.666-1.653-5.198-1.343-1.517-3.282-2.546-5.462-2.899a19.8 19.8 0 0 0-3.136-.25c-2.288 0-4.425.387-6.18 1.117l-.169.07-.006.183c-.004.106-.068 2.627 1.856 5.331l.11.152.181-.04c.031-.006 3.16-.681 5.095-.681.209 0 .397.008.558.023 1.283.122 2.141.584 2.416 1.3.207.54.064 1.194-.366 1.67-.597.659-2.094 1.133-4.326 1.371l-.18.021-.06.17c-.026.08-.157.572-.014 2.505.14 1.894.42 2.478.48 2.573l.144.013c3.904.299 4.952 1.276 5.506 2.284.285.524.294 1.162.02 1.625-.404.692-1.365.973-2.703.782-1.793-.258-6.402-2.351-6.448-2.374l-.198-.09-.139.167c-2.188 2.648-3.092 4.207-3.129 4.273l-.128.223.209.151c2.445 1.786 6.277 3.155 9.534 3.409.314.025.63.037.938.037 4.564 0 7.724-2.512 7.862-6.25.091-2.47-1.374-5.542-4.817-7.13Zm4.247 7.11c-.126 3.408-3.06 5.699-7.292 5.699-.295 0-.595-.013-.895-.036-3.017-.234-6.684-1.517-9.027-3.148.316-.505 1.198-1.85 2.798-3.802.924.414 4.729 2.089 6.405 2.328 1.57.225 2.749-.162 3.274-1.056.38-.646.374-1.486-.013-2.192-.62-1.133-1.752-2.224-5.778-2.565-.064-.227-.186-.794-.28-2.07-.092-1.25-.066-1.85-.039-2.108 2.288-.266 3.793-.78 4.473-1.532.572-.633.76-1.521.477-2.26-.206-.54-.858-1.47-2.893-1.664a6.736 6.736 0 0 0-.614-.025c-1.74 0-4.315.508-5.029.655-1.424-2.08-1.616-4.05-1.64-4.645 1.65-.655 3.645-1 5.782-1 1.03 0 2.055.081 3.045.241 2.05.333 3.87 1.297 5.127 2.715 1.242 1.403 1.78 3.08 1.517 4.726-.328 2.05-1.854 3.506-4.534 4.33v.001l-1.707.495s.905.254 1.758.073c3.634 1.386 5.176 4.429 5.085 6.84Z" fill="#322F82"/>
    <path d="M124.886 76.455s-.484-3.049-.827-4.103c-.345-1.051-1.306-4.25-1.542-4.955-.237-.704-1.814-4.354-1.814-4.354s.545-.526 1.031-.765c.486-.239 2.089-.9 2.089-.9s1.265-.332 1.629-.382c.366-.048.62-.07.62-.07l1.104 2.888s.727 2.24 1 3.355c.271 1.116.705 3.25.705 3.25l.688-.16.86-.216-.872-5.19s.301-.38.777-.565c.473-.185 1.248-.443 1.86-.497.612-.056 1.234-.097 1.569.021.336.12.427.177.427.177l.556 3.3.319 1.89 1.75-.177.06-.14s-.198-2.1-.14-2.77c.058-.667.14-4.057.14-4.057s.296-2.758.486-3.8c.188-1.038.895-4.096.895-4.096s.599-.047 1.039 0c.441.048 1.395.142 2.001.314.606.17 1.403.414 1.941.705.535.29.649.361.649.361s-.558 1.823-.771 2.686c-.215.862-.753 3.236-.916 4.225-.163.991-.463 3.086-.529 4.055-.066.97-.153 3.914-.153 3.914l.029 1.98.039.923-3.133.175s-1.436.108-3.228.357c-1.792.252-4.617.909-5.684 1.218-1.068.316-4.654 1.403-4.654 1.403Z" fill="#EB6224"/>
    <path d="M144.043 55.287c-.043-.03-1.071-.718-2.741-1.12a11.021 11.021 0 0 0-2.56-.308c-.312 0-.498.014-.507.016l-.194.017-.056.187c-.018.062-1.839 6.254-1.504 13.071a74.99 74.99 0 0 0 .074 1.305c.002.038.006.073.01.11l.011.17c-.593.047-1.023.094-1.282.126l-.845-5.018-.077-.066c-.064-.054-.425-.329-1.38-.329-.38 0-.808.044-1.275.131-1.943.362-2.373 1.062-2.416 1.14l-.046.087.845 5.019c-.217.052-.558.14-.992.266-.006-.031-.012-.06-.016-.09a1.695 1.695 0 0 0-.025-.145c-.006-.035-.014-.066-.021-.095-.969-5.053-2.701-8.915-2.719-8.954l-.081-.177-.194.01c-.056.005-1.406.08-2.999.705-1.6.63-2.524 1.45-2.563 1.486l-.163.146.097.195c.025.052 2.509 5.113 3.708 10.768l.438 2.378.089.557 4.821-1.511a53.951 53.951 0 0 1 4.008-.94c1.151-.214 2.474-.399 3.921-.552l4.47-.298-.014-.282a53.865 53.865 0 0 1 .024-5.915c.346-5.992 2.243-11.704 2.261-11.76l.071-.208-.178-.122Zm-2.72 12.059a54.524 54.524 0 0 0-.037 5.696l-3.921.262a51.256 51.256 0 0 0-3.974.561 53.456 53.456 0 0 0-4.061.952l-4.208 1.32-.426-2.305c-1.079-5.086-3.179-9.69-3.658-10.706a9.228 9.228 0 0 1 2.226-1.245 10.459 10.459 0 0 1 2.626-.65c.368.86 1.904 4.62 2.716 9.28l.056.32.182 1.03s.207-.523.262-1.167a16.708 16.708 0 0 1 1.379-.364l.269-.056-.899-5.335c.152-.156.653-.549 1.967-.794a6.48 6.48 0 0 1 1.172-.123c.525 0 .812.096.934.152l.899 5.34.277-.044c.006-.002.585-.094 1.627-.167.21.597.531 1.042.531 1.042l-.079-1.073-.022-.287a79.252 79.252 0 0 1-.116-1.858c-.298-6.046 1.124-11.595 1.426-12.684a10.439 10.439 0 0 1 2.691.287 9.228 9.228 0 0 1 2.375.929c-.346 1.103-1.902 6.28-2.214 11.687Z" fill="#322F82"/>
    <path d="M139.961 76.696s.113-3.19.101-4.038c-.012-.848-.031-4.82-.052-5.358-.02-.537-.376-5.238-.376-5.238l-.248-1.36s.688-.357 1.304-.5c.616-.143 1.867-.256 2.383-.21.519.046 1.009.146 1.009.146s.258 1.706.333 2.537c.072.832.204 2.746.204 2.746s.992-.593 1.453-.973c.461-.378 1.864-1.687 2.367-2.46.502-.778 1.546-2.588 2.046-4.226.5-1.636.783-2.633.938-3.469l.157-.837.974-.005s1.035.187 1.583.358c.548.17 1.459.515 1.817.7.357.185 1.153.667 1.153.667s-.321.977-.628 1.72c-.308.741-1.22 2.74-1.685 3.566-.465.825-1.707 2.889-2.523 3.88-.819.994-1.664 1.923-1.951 2.2-.29.275-.257.3-.257.3l.327.254s1.004.78 1.761 1.534c.758.754 2.232 2.35 2.817 3.111.585.763 1.88 2.584 2.242 3.19l.416.703s-.11.873-.542 1.576c-.432.702-1.424 1.544-1.984 1.83-.56.285-1.137.489-1.137.489s-1.025-1.916-1.428-2.525c-.403-.61-1.637-2.47-2.42-3.305-.783-.835-1.614-1.694-2.255-2.16-.641-.465-1.885-1.192-2.348-1.406-.463-.217-.7-.298-.7-.298l.08 6.63s-.231.25-1.068.36c-.84.11-1.968.143-1.968.143l-1.126-.093-.769-.179Z" fill="#5CC4F0"/>
    <path d="M157.876 75.495c-.029-.052-2.85-5.153-7.406-8.7 4.762-4.633 6.891-11.465 6.912-11.535l.06-.198-.166-.12c-.045-.034-1.147-.82-2.784-1.328a9.582 9.582 0 0 0-2.75-.45c-.112 0-.174.005-.174.005l-.229.012-.036.229c-.008.054-.866 5.462-3.253 8.63a11.836 11.836 0 0 1-3.168 2.895c-.217-3.457-.504-4.802-.517-4.86l-.035-.158-.151-.052c-.02-.006-.5-.168-1.401-.168-.304 0-.626.019-.955.054-1.717.191-2.567.678-2.602.698l-.2.12.074.223c.004.013.453 1.401.616 7.32.165 6.007-.031 8.536-.035 8.561l-.017.216.203.075c.035.013.942.347 2.649.28 1.867-.072 2.487-.504 2.551-.554l.111-.085.002-.14c0-.025.025-2.367-.08-6.204 1.12.443 2.451 1.358 3.288 2.09 2.997 2.614 5.301 7.255 5.324 7.3l.099.2.215-.046c.048-.008 1.166-.26 2.474-1.442 1.325-1.2 1.412-2.656 1.416-2.716l.004-.082-.039-.07Zm-1.761 2.444c-.87.788-1.649 1.122-2.007 1.245-.498-.966-2.606-4.868-5.351-7.266-.98-.854-2.61-1.952-3.877-2.338l-.38-.117.012.4c.105 3.475.099 5.806.095 6.428-.236.11-.86.33-2.118.38-1.135.044-1.894-.102-2.23-.187.043-.752.159-3.365.02-8.388-.132-4.768-.444-6.635-.583-7.246.321-.14 1.046-.405 2.185-.53.308-.035.608-.051.893-.051.516 0 .874.058 1.062.097.085.478.318 1.99.492 4.939l-1.093.741s1.122-.041 1.911-.606a.049.049 0 0 0 .017-.015 12.488 12.488 0 0 0 3.334-3.04c2.211-2.935 3.127-7.54 3.323-8.649.42.006 1.356.067 2.499.422 1.182.37 2.085.9 2.447 1.133-.395 1.178-2.579 7.226-6.934 11.315l-.25.232.273.206c4.305 3.246 7.099 7.994 7.471 8.648-.029.293-.223 1.353-1.211 2.247Z" fill="#322F82"/>
    <path d="M160.273 76.397s-1.337.33-2.16.283c-.82-.048-1.331-.096-1.331-.096l-.465-4.367s-.32-3.938-.283-5.036c.035-1.097-.043-5.464-.043-5.464s.74-.253 1.248-.339c.506-.085 1.918-.222 1.918-.222s.705.002 1.116 0c.413 0 .754.127.754.127s-.076 2.294-.055 3.26c.02.967.093 2.91.155 3.831.064.919.217 2.708.217 2.708l.888-2.04s1.143-2.412 1.612-3.247c.47-.835 2.251-3.698 2.251-3.698l.992-1.402s1.172-.327 1.718-.39c.545-.06 2.24.06 2.24.06l1.114.246-.213 2.665s-.076 2.733-.043 3.938c.033 1.204.114 3.875.256 5.155.143 1.28.738 5.07.738 5.07l-1.007.313s-1.411.247-2.407.285c-.997.035-1.865-.192-1.865-.192l-.367-2.982-.298-3.544-.141-3.639-.845 1.262s-1.31 1.928-2.094 3.336c-.783 1.409-1.413 2.647-1.413 2.647l-.445.952-1.095.372-.647.148Z" fill="#FFEC00"/>
    <path d="M173.17 77.372c-.006-.027-.686-2.798-.924-8.25-.24-5.455.188-8.436.192-8.465l.031-.208-.19-.091c-.031-.015-.798-.378-2.73-.328-1.676.045-2.534.388-2.571.403l-.073.029-.047.062c-.035.044-3.212 4.232-5.33 9.448a98.13 98.13 0 0 1-.098-1.282c-.32-4.734-.124-7.357-.121-7.382l.016-.22-.207-.073c-.045-.017-.469-.154-1.446-.154-.387 0-.811.02-1.261.064-1.656.16-2.499.516-2.534.53l-.167.073-.004.183c-.003.033-.089 3.415.132 7.64.221 4.198.651 7.268.655 7.3l.025.172.163.056c.029.01.302.098.961.098a13 13 0 0 0 1.846-.156c1.864-.275 2.625-.671 2.656-.69l.086-.046.04-.09c.987-2.225 2.438-4.734 4.315-7.465.006.31.014.617.023.917.149 4.838.715 8.409.721 8.444l.023.148.134.066c.048.021.49.219 1.668.219.358 0 .75-.02 1.17-.055 1.887-.162 2.664-.559 2.695-.577l.198-.104-.047-.216Zm-2.892.328c-.403.035-.779.052-1.12.052-.698 0-1.101-.075-1.29-.123-.113-.764-.558-3.996-.688-8.199a78.247 78.247 0 0 1-.033-1.717l.883-1.438s-.841.41-1.4 1.197c-.004.002-.004.007-.006.009 0 .002-.004.004-.006.006 0 .002-.002.002-.002.006-2.108 2.997-3.728 5.743-4.816 8.168-.233.102-.973.383-2.389.59-.68.1-1.273.152-1.763.152-.291 0-.49-.019-.611-.035a94.73 94.73 0 0 1-.623-7.05 108.867 108.867 0 0 1-.138-7.401c.31-.104 1.046-.316 2.197-.426.432-.042.837-.063 1.205-.063.514 0 .858.042 1.054.077-.041.763-.13 3.265.136 7.22.058.859.128 1.705.207 2.515l.124 1.25.428-1.179c1.922-5.285 5.194-9.779 5.638-10.373.225-.075 1.002-.302 2.304-.337 1.247-.035 1.968.114 2.28.206-.095.81-.372 3.691-.169 8.338.204 4.662.715 7.335.886 8.12-.328.121-1.052.331-2.288.435Z" fill="#322F82"/>
    <path d="M62.182 29.097a.418.418 0 0 1-.122-.017 25.233 25.233 0 0 0-2.139-.47.476.476 0 0 1-.386-.55.472.472 0 0 1 .547-.39c.763.134 1.511.298 2.222.49a.476.476 0 0 1-.122.937ZM30.498 33.164a.477.477 0 0 1-.174-.92c8.768-3.488 18.118-5.311 25.658-5a.478.478 0 0 1-.04.954c-7.301-.303-16.747 1.543-25.268 4.933a.478.478 0 0 1-.176.033ZM19.1 39.374a.476.476 0 0 1-.3-.848c1.408-1.143 3.206-2.3 5.345-3.442a.478.478 0 0 1 .446.844c-2.085 1.112-3.833 2.239-5.193 3.342a.468.468 0 0 1-.298.104Z" fill="#F9BE14"/>
    <path d="M61.508 56.891a.38.38 0 0 1-.314-.166 6.17 6.17 0 0 1-.382-.65.383.383 0 0 1 .167-.514.378.378 0 0 1 .51.168c.102.202.214.391.331.566a.382.382 0 0 1-.312.596ZM60.45 53.884a.377.377 0 0 1-.358-.256.38.38 0 0 1 .232-.486c.186-.067 4.596-1.6 9.36-.175a.382.382 0 0 1-.217.734c-4.518-1.353-8.846.145-8.891.16a.331.331 0 0 1-.126.023ZM65.235 63.39a.382.382 0 0 1-.035-.763 8.17 8.17 0 0 0 1.118-.199.383.383 0 0 1 .18.742 8.858 8.858 0 0 1-1.23.218c-.01.002-.02.002-.033.002ZM67.79 62.912a.382.382 0 0 1-.095-.75c1.14-.301 1.867-.819 2.16-1.54a.379.379 0 0 1 .497-.208.382.382 0 0 1 .207.499c-.389.954-1.288 1.623-2.67 1.989a.56.56 0 0 1-.1.01Z" fill="#FFFEF5"/>
    <path d="M76.077 79.467a.384.384 0 0 1-.205-.705c.004-.002.546-.355 1.41-1.04a.377.377 0 0 1 .533.065.383.383 0 0 1-.064.537 20.655 20.655 0 0 1-1.467 1.082.402.402 0 0 1-.207.06ZM84.156 71.617a.385.385 0 0 1-.231-.08.385.385 0 0 1-.069-.536 38.522 38.522 0 0 0 4.076-6.544.379.379 0 0 1 .508-.175.385.385 0 0 1 .174.511 39.073 39.073 0 0 1-4.156 6.674.377.377 0 0 1-.302.15ZM88.943 63.563a.384.384 0 0 1-.35-.536c.083-.188.163-.379.244-.572a.381.381 0 1 1 .7.295c-.08.198-.164.39-.25.584a.372.372 0 0 1-.344.229Z" fill="#F6AB1B"/>
    <path d="M101.322 61.896a.384.384 0 0 1-.295-.623c1.223-1.52 2.232-3.104 2.995-4.708a.38.38 0 1 1 .684.328c-.79 1.659-1.829 3.292-3.09 4.86a.367.367 0 0 1-.294.143ZM105.016 55.659a.383.383 0 0 1-.356-.517c.201-.54.275-.853.275-.857a.38.38 0 1 1 .738.172c-.004.015-.082.36-.304.952a.373.373 0 0 1-.353.25ZM99.847 67.33a.379.379 0 0 1-.18-.045c-.06-.033-1.5-.825-3.36-2.826a.38.38 0 1 1 .556-.52c1.764 1.902 3.151 2.667 3.166 2.675a.384.384 0 0 1 .153.517c-.071.127-.2.2-.335.2Z" fill="#BFE4F8"/>
    <path d="M110.013 61.353a.383.383 0 0 1-.328-.574c.012-.02.299-.508.895-1.134a.377.377 0 0 1 .537-.01.384.384 0 0 1 .01.54c-.529.555-.785.987-.787.991a.376.376 0 0 1-.327.187ZM112.351 59.05a.384.384 0 0 1-.207-.703c2.036-1.325 4.556-1.755 7.284-1.242a.379.379 0 0 1 .303.445.376.376 0 0 1-.442.303c-2.571-.482-4.836-.101-6.731 1.135a.366.366 0 0 1-.207.063ZM120.504 49.338a.4.4 0 0 1-.128-.023c-2.66-.96-5.117-.55-5.142-.548a.383.383 0 0 1-.13-.754c.107-.02 2.67-.45 5.529.581a.385.385 0 0 1-.129.744ZM122.553 50.359a.375.375 0 0 1-.207-.063 9.16 9.16 0 0 0-.589-.355.381.381 0 1 1 .366-.67c.217.12.43.25.638.385a.38.38 0 0 1 .11.528.381.381 0 0 1-.318.175Z" fill="#FFFEF5"/>
    <path d="M137.838 67.535a.382.382 0 0 1-.38-.36 16.794 16.794 0 0 1-.02-.784c0-.212.167-.382.378-.382a.377.377 0 0 1 .382.38c.002.287.008.539.019.744.01.21-.149.391-.358.404-.006-.002-.014-.002-.021-.002ZM130.931 67.02a.38.38 0 0 1-.368-.29 32.858 32.858 0 0 1-.192-.979c-.035-.185-.064-.349-.085-.447a.379.379 0 1 1 .744-.15c.021.099.052.267.087.456.062.34.149.806.182.931a.381.381 0 0 1-.275.464.29.29 0 0 1-.093.014ZM31.573 85.35a.478.478 0 0 1-.06-.952c.773-.101 1.397-.224 1.813-.79.756-1.028.793-3.493.113-7.535a.477.477 0 1 1 .938-.16c.745 4.43.656 6.979-.287 8.261-.634.863-1.558 1.05-2.45 1.168a.259.259 0 0 1-.067.009ZM29.752 85.575a.472.472 0 0 1-.47-.438.473.473 0 0 1 .433-.514l.283-.025a.478.478 0 0 1 .079.952l-.283.023c-.015.002-.027.002-.042.002Z" fill="#F9BE14"/>
    <path d="M157.636 74.6a.383.383 0 0 1-.378-.342c-.188-1.752-.362-4.537-.446-7.093a.381.381 0 0 1 .368-.393.373.373 0 0 1 .392.37c.083 2.538.259 5.3.445 7.037a.38.38 0 0 1-.337.42h-.044ZM157.152 66.134a.383.383 0 0 1-.38-.374l-.012-.799a.381.381 0 0 1 .376-.386.384.384 0 0 1 .384.378c.002.262.007.524.013.792a.379.379 0 0 1-.372.389h-.009ZM157.15 63.143h-.008a.378.378 0 0 1-.37-.39l.008-.288a.378.378 0 0 1 .391-.37.382.382 0 0 1 .368.393l-.006.28a.388.388 0 0 1-.383.375ZM119.578 70.802a.381.381 0 0 1-.378-.351c-.14-1.827.116-3.157.126-3.214a.38.38 0 1 1 .744.15c-.002.013-.246 1.289-.115 3.005a.382.382 0 0 1-.35.41h-.027Z" fill="#FFFEF5"/>
    <path d="M91.22 60.884a.38.38 0 0 1-.376-.335 65.746 65.746 0 0 0-.378-2.666.38.38 0 1 1 .748-.125c.136.837.265 1.744.382 2.698a.385.385 0 0 1-.376.428ZM90.652 57.128a.383.383 0 0 1-.374-.31c-.052-.27-.083-.411-.083-.413a.379.379 0 1 1 .742-.162s.033.147.087.432a.382.382 0 0 1-.372.453Z" fill="#BFE4F8"/>
    <path d="M124.591 70.047a.375.375 0 0 1-.362-.27c-.794-2.614-1.734-5.158-2.398-6.478a.384.384 0 0 1 .168-.514.379.379 0 0 1 .51.169c.693 1.38 1.629 3.907 2.445 6.6a.381.381 0 0 1-.363.493Z" fill="#F9BE14"/>
    <path d="M141.201 72.88c-.006 0-.014 0-.023-.002a.379.379 0 0 1-.357-.401c.124-2.25-.044-6.21-.263-8.792a.384.384 0 0 1 .348-.413.38.38 0 0 1 .409.347c.223 2.606.39 6.611.264 8.9a.379.379 0 0 1-.378.361ZM140.765 62.372a.381.381 0 0 1-.376-.333 13.17 13.17 0 0 0-.134-.858.38.38 0 1 1 .744-.154c.047.233.095.54.142.915a.378.378 0 0 1-.376.43Z" fill="#BFE4F8"/>
    <path d="M71.317 72.41a.383.383 0 0 1-.263-.659c.177-.168.32-.378.422-.62a.379.379 0 0 1 .499-.2.385.385 0 0 1 .198.503 2.611 2.611 0 0 1-.593.868.375.375 0 0 1-.263.108ZM68.422 73.676c-1.288 0-3.065-.353-5.442-1.502a.384.384 0 0 1-.178-.51.377.377 0 0 1 .507-.178c2.972 1.434 5.534 1.808 7.033 1.026a.379.379 0 0 1 .512.162.383.383 0 0 1-.16.516c-.46.239-1.195.486-2.272.486Z" fill="#FFFEF5"/>
    <path d="M76.877 66.857a.377.377 0 0 1-.298-.145c-1.662-2.104-2.47-3.567-2.503-3.627a.384.384 0 0 1 .149-.52.376.376 0 0 1 .515.15c.008.014.814 1.471 2.432 3.523a.382.382 0 0 1-.295.619ZM78.276 68.53a.381.381 0 0 1-.285-.129 66.4 66.4 0 0 1-.428-.494.383.383 0 0 1 .041-.539.378.378 0 0 1 .536.042c.136.16.277.32.421.484a.383.383 0 0 1-.285.636Z" fill="#F6AB1B"/>
    <path d="M146.327 66.134a.379.379 0 0 1-.308-.158.384.384 0 0 1 .087-.534c.198-.144.396-.295.587-.451a.375.375 0 0 1 .533.058.382.382 0 0 1-.056.536c-.2.164-.411.324-.622.478a.378.378 0 0 1-.221.07ZM147.889 64.81a.384.384 0 0 1-.266-.655c1.661-1.638 2.976-3.774 3.8-6.179a.381.381 0 0 1 .72.25c-.864 2.516-2.243 4.755-3.987 6.476a.393.393 0 0 1-.267.108ZM152.147 57.296a.382.382 0 0 1-.366-.482c.056-.206.109-.418.159-.63a.379.379 0 1 1 .738.177c-.052.223-.108.44-.168.657a.373.373 0 0 1-.363.278ZM152.558 55.442a.38.38 0 0 1-.374-.449c.035-.195.066-.392.095-.594a.38.38 0 1 1 .75.11c-.031.206-.064.412-.099.615a.376.376 0 0 1-.372.318ZM106.128 72.066a.38.38 0 0 1-.378-.35 48.167 48.167 0 0 1-.163-3.13.383.383 0 0 1 .372-.39.387.387 0 0 1 .386.374c.019.995.074 2.032.161 3.082a.38.38 0 0 1-.345.413h-.033Z" fill="#BFE4F8"/>
    <path d="M54.202 41.642a.477.477 0 0 1-.24-.065.482.482 0 0 1-.171-.652c.203-.35.353-.698.446-1.04a.47.47 0 0 1 .583-.332c.255.07.401.333.33.588-.115.42-.297.846-.54 1.266a.473.473 0 0 1-.408.235ZM39.377 49.958a.476.476 0 0 1-.124-.937c5.487-1.522 10.316-3.83 12.911-6.174a.472.472 0 0 1 .67.036.479.479 0 0 1-.037.673c-2.701 2.44-7.67 4.826-13.294 6.383a.432.432 0 0 1-.126.019ZM35.459 50.862a.476.476 0 0 1-.467-.393.48.48 0 0 1 .382-.555c.448-.081.911-.173 1.383-.274a.477.477 0 0 1 .2.933c-.481.104-.957.2-1.416.282a.509.509 0 0 1-.082.007ZM33.383 74.038a.477.477 0 0 1-.469-.401l-.045-.283a.473.473 0 1 1 .936-.152l.045.281a.479.479 0 0 1-.467.555Z" fill="#F9BE14"/>
    <path d="M80.975 73.196s-1.64-1.61-2.177-2.203c-.537-.594-2.209-2.58-2.343-2.75-.135-.17-2.092-2.793-2.673-3.705-.578-.91-1.28-2.116-1.28-2.116s1.032-.501 1.425-.632c.39-.131 1.684-.474 2.337-.536.654-.063 1.927.023 1.927.023s.709 1.348.957 1.766c.248.42 1.663 2.61 2.15 3.245.485.633 2.893 3.352 2.893 3.352l1.335-2.114s1.67-2.982 2.114-3.897c.444-.914.97-2.055.97-2.055s1.351.347 2.002.686c.651.338 1.724 1 2.164 1.386.44.384.862.8.862.8l-1.15 2.052s-1.184 1.914-1.835 2.814c-.65.9-1.901 2.567-2.73 3.487-.83.919-2.997 3.085-3.67 3.691-.676.607-3.772 3.176-3.772 3.176s-2.45 1.757-2.784 1.969c-.337.21-1.098.652-1.098.652s-.343-.222-.622-.559c-.279-.337-.818-1.262-.818-1.262s-.221-.631-.26-.92c-.04-.29-.054-.503-.054-.503l2.213-1.742 2.398-2.16 1.731-1.776-.212-.169Z" fill="#EB6224"/>
    <path d="M93.85 64.255c-.036-.042-.946-1.048-2.434-1.898-1.492-.852-2.71-1.058-2.761-1.066l-.22-.035-.088.203c-.018.04-1.767 4.047-4.202 7.734-3.102-3.163-5.014-6.663-5.7-8.045l-.072-.144-.16-.014a12.431 12.431 0 0 0-3.148.206c-1.617.326-2.675.96-2.719.987l-.238.145.137.243c.603 1.07 2.854 4.866 6.465 8.75.653.7 1.347 1.403 2.07 2.09-3.2 3.323-6.07 5.38-6.099 5.401l-.121.087.002.15c0 .041.02 1.012.523 1.922.568 1.031 1.33 1.538 1.362 1.56l.138.09.147-.074c.153-.08 3.803-1.991 9.37-7.4 4.882-4.742 7.765-10.512 7.794-10.57l.087-.174-.132-.148Zm-8.144 10.477c-4.87 4.728-8.327 6.792-9.082 7.216a4.376 4.376 0 0 1-1.043-1.26c-.327-.59-.416-1.23-.443-1.508.604-.445 3.229-2.438 6.103-5.433a4.393 4.393 0 0 0 1.315.522l-1.319-1.22a46.358 46.358 0 0 1-2.11-2.125c-3.323-3.574-5.479-7.068-6.24-8.386a9.237 9.237 0 0 1 2.295-.783 12.085 12.085 0 0 1 2.831-.204c.777 1.536 2.78 5.113 5.98 8.293l.243.243.192-.285c2.237-3.321 3.94-6.992 4.349-7.902a9.132 9.132 0 0 1 2.36.954 10.45 10.45 0 0 1 2.158 1.642c-.525 1.004-3.257 6.03-7.59 10.236Z" fill="#322F82"/>
    <path d="M76.076 79.608a.374.374 0 0 1-.318-.175.384.384 0 0 1 .114-.528c.004-.004.546-.355 1.41-1.04a.383.383 0 0 1 .533.062.382.382 0 0 1-.064.536c-.895.709-1.445 1.066-1.468 1.083a.37.37 0 0 1-.207.062ZM84.156 71.76a.385.385 0 0 1-.3-.617 38.448 38.448 0 0 0 4.076-6.545.38.38 0 0 1 .508-.175.385.385 0 0 1 .174.511 39.155 39.155 0 0 1-4.157 6.674.373.373 0 0 1-.301.152ZM88.942 63.706a.384.384 0 0 1-.35-.536c.083-.19.164-.38.245-.572a.38.38 0 0 1 .498-.203.381.381 0 0 1 .202.498c-.08.198-.165.391-.25.585a.376.376 0 0 1-.345.228ZM76.876 67a.375.375 0 0 1-.297-.143c-1.662-2.105-2.47-3.566-2.503-3.629a.384.384 0 0 1 .149-.52.376.376 0 0 1 .514.15c.008.015.814 1.472 2.433 3.521a.382.382 0 0 1-.062.536.349.349 0 0 1-.234.085ZM78.275 68.674a.381.381 0 0 1-.285-.13c-.146-.166-.289-.33-.427-.494a.383.383 0 0 1 .04-.538.378.378 0 0 1 .536.041c.136.16.277.32.422.485a.383.383 0 0 1-.286.636Z" fill="#F9BE14"/>
    <path d="M62.635 64.88c-1.972-5.777-7.57-9.396-13.616-8.802-1.007.1-2.007.318-2.97.651-3.292 1.137-5.95 3.5-7.482 6.653a13.1 13.1 0 0 0-.624 10.024c1.972 5.778 7.57 9.396 13.614 8.804 1.006-.1 2.007-.318 2.97-.65 6.81-2.351 10.445-9.833 8.108-16.68Z" fill="#322F82"/>
    <path d="M44.433 52.626a1.229 1.229 0 0 1 1.558.77 1.236 1.236 0 0 1-.758 1.568 1.228 1.228 0 0 1-1.559-.769 1.236 1.236 0 0 1 .759-1.569Zm-.178-.52a1.786 1.786 0 0 0-1.098 2.268 1.767 1.767 0 0 0 2.25 1.11 1.785 1.785 0 0 0 1.097-2.265 1.769 1.769 0 0 0-2.25-1.112Z" fill="#008E46"/>
    <path d="M45.011 54.495c-.93.322-1.397 1.436-1.04 2.486l.309.9 3.373-1.164-.062-.183-.24-.717c-.36-1.052-1.407-1.642-2.34-1.322Z" fill="#652B82"/>
    <path d="M45.507 55.947c6.64-2.294 13.901 1.274 16.18 7.952 2.28 6.68-1.266 13.98-7.909 16.272-6.64 2.295-13.899-1.274-16.18-7.952-2.28-6.68 1.269-13.979 7.91-16.271Z" fill="#00AFEA"/>
    <path d="M50.912 81.125c-6.043.595-11.642-3.026-13.614-8.804a13.1 13.1 0 0 1 .624-10.024c1.534-3.153 4.19-5.516 7.482-6.653.963-.332 1.963-.55 2.97-.65 6.043-.595 11.642 3.024 13.616 8.801 2.337 6.847-1.3 14.329-8.106 16.68-.965.332-1.966.55-2.972.65ZM48.436 55.63a12.4 12.4 0 0 0-2.825.619c-3.132 1.08-5.66 3.33-7.118 6.329a12.473 12.473 0 0 0-.594 9.535c1.877 5.496 7.203 8.937 12.95 8.374a12.296 12.296 0 0 0 2.826-.62c6.475-2.236 9.935-9.352 7.711-15.864-1.876-5.495-7.202-8.939-12.95-8.373Z" fill="#322F82"/>
    <path d="M52.745 77.143c-4.98 1.72-10.425-.956-12.136-5.965-1.711-5.009.95-10.483 5.932-12.204 4.98-1.721 10.425.956 12.136 5.965 1.71 5.009-.95 10.485-5.932 12.204Z" fill="#FFF593"/>
    <path d="M49.637 58.87a9.148 9.148 0 0 1 8.65 6.207c1.636 4.793-.91 10.028-5.676 11.674a9.067 9.067 0 0 1-2.96.5 9.148 9.148 0 0 1-8.65-6.207c-1.636-4.79.91-10.028 5.676-11.676a9.102 9.102 0 0 1 2.96-.497Zm-.002-.415c-1.027 0-2.071.169-3.094.522-4.981 1.72-7.643 7.195-5.932 12.204a9.57 9.57 0 0 0 9.042 6.487c1.027 0 2.071-.169 3.094-.522 4.981-1.72 7.641-7.195 5.932-12.204a9.572 9.572 0 0 0-9.042-6.487Z" fill="#F7AC33"/>
    <path d="M47.766 60.593a.638.638 0 1 1-1.205.416.643.643 0 0 1 .397-.815.636.636 0 0 1 .808.399ZM52.724 75.11a.64.64 0 0 1-.394.813.635.635 0 0 1-.809-.397.642.642 0 0 1 .395-.815.638.638 0 0 1 .808.4ZM42.217 69.945a.64.64 0 0 1 .413 1.212.635.635 0 0 1-.808-.397.643.643 0 0 1 .395-.815ZM56.655 64.962a.638.638 0 0 1 .81.397.638.638 0 1 1-1.205.416.638.638 0 0 1 .395-.813Z" fill="#F9BB16"/>
    <path opacity=".5" d="M52.913 77.63c-5.248 1.812-10.985-1.007-12.788-6.286-.872-2.552-.7-5.298.48-7.727a10.016 10.016 0 0 1 5.768-5.13 9.937 9.937 0 0 1 7.684.485 10.035 10.035 0 0 1 5.101 5.8c1.805 5.28-.998 11.047-6.245 12.857ZM46.5 58.854a9.631 9.631 0 0 0-5.547 4.932 9.714 9.714 0 0 0-.463 7.43c1.732 5.074 7.248 7.786 12.293 6.044 5.045-1.743 7.743-7.288 6.008-12.364a9.65 9.65 0 0 0-4.904-5.578 9.575 9.575 0 0 0-7.387-.464Z" fill="#322F82"/>
    <path opacity=".6" d="M43.1 71.96a1.38 1.38 0 0 1-1.763-.842c-1.62-4.747.981-9.96 5.801-11.625a1.379 1.379 0 0 1 1.763.844c.246.717-.147 1.503-.876 1.754-3.365 1.162-5.182 4.803-4.05 8.114.247.717-.146 1.503-.876 1.755Z" fill="#fff"/>
    <path d="m47.655 67.06 1.9.86 3.628-8.117-5.528 7.258Z" fill="#E84647"/>
    <path d="m51.455 68.778 1.728-8.975-3.63 8.116 1.902.859Z" fill="#EF7C6E"/>
    <path d="m49.554 67.92-3.627 8.117 5.528-7.26-1.901-.858Z" fill="#2171B8"/>
    <path d="m47.655 67.06-1.728 8.977 3.627-8.118-1.9-.858Z" fill="#0096D6"/>
    <path d="M50.848 67.493a1.371 1.371 0 0 1-.866 1.73 1.36 1.36 0 0 1-1.72-.874 1.371 1.371 0 0 1 .866-1.729 1.36 1.36 0 0 1 1.72.873Z" fill="#fff"/>
    <path d="M50.002 69.282a1.427 1.427 0 0 1-1.802-.914 1.44 1.44 0 0 1 .907-1.812 1.427 1.427 0 0 1 1.803.914 1.437 1.437 0 0 1-.908 1.813Zm-.853-2.6a1.306 1.306 0 0 0-.825 1.644 1.3 1.3 0 0 0 1.637.832 1.309 1.309 0 0 0 .825-1.646 1.297 1.297 0 0 0-1.637-.83Z" fill="#585857"/>
    <path d="M50.24 67.692a.724.724 0 1 1-1.374.453.73.73 0 0 1 .46-.918c.381-.123.79.085.914.465Z" fill="#8FC03F"/>
    <path d="M58.313 76.528a.389.389 0 0 1-.409-.636 11.577 11.577 0 0 0 3.065-6.876.388.388 0 1 1 .773.067 12.353 12.353 0 0 1-3.274 7.343.381.381 0 0 1-.155.102Zm-20.306-7.56a.389.389 0 0 1-.513-.35 12.286 12.286 0 0 1 4.622-10.183 12.075 12.075 0 0 1 3.571-1.955.39.39 0 0 1 .25.738 11.263 11.263 0 0 0-3.344 1.83 11.504 11.504 0 0 0-4.328 9.536.384.384 0 0 1-.258.385ZM61.78 67.437a.414.414 0 1 1-.785.27.416.416 0 1 1 .785-.27ZM38.395 70.022a.415.415 0 1 1-.785.272.418.418 0 0 1 .258-.53.41.41 0 0 1 .527.258Z" fill="#9AD6F5"/>
    <path d="M138.34 49.324c-.279 0-.545-.194-.661-.485a.712.712 0 0 1 .163-.794c.221-.214.426-.446.627-.708a7.05 7.05 0 0 1-1.404-1.403.713.713 0 0 1-.076-.753.727.727 0 0 1 .64-.409c.213 0 .406.102.544.287.294.395.639.746 1.046 1.068.225-.455.417-.95.572-1.478a.628.628 0 0 1 .614-.471c.238 0 .475.122.622.318a.718.718 0 0 1 .112.642 9.955 9.955 0 0 1-.703 1.758c.333.168.686.32 1.056.453a.676.676 0 0 1 .453.771.712.712 0 0 1-.688.607.722.722 0 0 1-.252-.046c-.461-.166-.904-.36-1.321-.577a8.451 8.451 0 0 1-.895 1.026.627.627 0 0 1-.449.194Z" fill="#fff"/>
    <path d="M141.395 47.628a9.627 9.627 0 0 1-1.358-.607c.343-.613.616-1.27.821-1.964.153-.514-.633-.838-.786-.322a9.227 9.227 0 0 1-.754 1.835 6.052 6.052 0 0 1-1.381-1.334c-.33-.443-.967.079-.638.521.448.6.985 1.1 1.581 1.515-.246.35-.519.682-.833.986-.378.365.159 1.032.541.662a7.99 7.99 0 0 0 1.011-1.195c.479.268.984.495 1.507.682.512.185.804-.594.289-.78Z" fill="#E73443"/>
    <path d="M143.79 48.542a2.169 2.169 0 0 1-1.457-.582c-.886-.812-1.11-2.037-.572-3.12a.695.695 0 0 1 .554-.392c.364-.341.876-.534 1.428-.534.655 0 1.285.272 1.688.73.792.895.74 2.418-.111 3.256a2.183 2.183 0 0 1-1.53.642Zm-.843-2.652c-.047.256-.041.615.261.892.196.18.432.289.632.289.126 0 .236-.04.333-.123.343-.289.519-.887.24-1.26a.797.797 0 0 0-.633-.297c-.238 0-.44.096-.556.262a.69.69 0 0 1-.277.237Z" fill="#fff"/>
    <path d="M142.437 44.74a.4.4 0 0 0-.416.231c-.473.95-.291 2.035.509 2.771.781.717 1.872.646 2.583-.052.73-.717.8-2.055.097-2.851-.692-.788-2.075-.859-2.773-.098Zm1.924 2.433c-.42.353-.973.174-1.352-.173-.394-.364-.448-.883-.306-1.349a.353.353 0 0 0 .279-.166c.379-.54 1.269-.501 1.662.027.391.517.153 1.293-.283 1.66Z" fill="#E73443"/>
    <path d="M148.924 48.453a.738.738 0 0 1-.566-.252.696.696 0 0 1-.149-.565c.041-.26.079-.53.118-.831a2.143 2.143 0 0 1-1.222-.27c-1.023-.587-.983-1.694-.959-2.426.015-.393.296-.667.686-.667.213 0 .42.087.565.237.138.145.213.34.204.55l-.008.18c-.023.415-.023.679.194.833.085.06.215.1.331.1.048 0 .159-.009.201-.077a.692.692 0 0 1 .196-.217c.029-.355.052-.673.068-.966a.673.673 0 0 1 .694-.663c.215 0 .422.087.565.239a.742.742 0 0 1 .196.553 36.36 36.36 0 0 1-.38 3.616.727.727 0 0 1-.734.626Z" fill="#fff"/>
    <path d="M148.877 44.096c-.021.38-.05.761-.083 1.142a.37.37 0 0 0-.223.176c-.182.306-.682.258-.951.067-.419-.295-.324-.823-.31-1.262.019-.574-.849-.673-.868-.1-.029.828-.008 1.692.81 2.16.414.237.968.312 1.418.156-.049.415-.105.831-.169 1.245-.089.565.781.66.868.1.186-1.187.312-2.382.376-3.586.033-.57-.837-.671-.868-.098Z" fill="#E73443"/>
    <path d="M151.762 48.916c-.3 0-.558-.222-.643-.552a.777.777 0 0 1 .36-.89c.078-.044.155-.094.229-.143a2.295 2.295 0 0 1-.649-.445c-.589-.572-.86-1.457-.779-2.56.027-.38.304-.643.676-.643.217 0 .424.091.57.247a.763.763 0 0 1 .197.574c-.027.366-.017 1.022.347 1.326.169.141.362.218.593.235.134-.36.215-.767.242-1.216.02-.38.295-.649.669-.649.215 0 .424.09.571.248a.762.762 0 0 1 .202.571 5.373 5.373 0 0 1-.235 1.32.85.85 0 0 1 .035.611.735.735 0 0 1-.529.499l-.037.008a4.235 4.235 0 0 1-1.482 1.366.684.684 0 0 1-.337.093Z" fill="#fff"/>
    <path d="M153.194 44.868a4.282 4.282 0 0 1-.339 1.494c-.343.014-.678-.056-.975-.306-.437-.363-.49-1.05-.453-1.575.041-.574-.816-.715-.858-.137-.06.825.073 1.73.691 2.328.301.293.657.463 1.031.54-.19.2-.414.374-.672.52-.481.27-.157 1.11.331.837a3.939 3.939 0 0 0 1.445-1.37c.049-.01.097-.02.146-.033.374-.093.432-.563.244-.787.149-.426.236-.886.265-1.374.033-.576-.823-.717-.856-.137Z" fill="#E73443"/>
    <path d="M160.418 49.976c-1.22 0-2.48-.893-3.135-1.725a.668.668 0 0 1-.087-.719.805.805 0 0 1 .713-.449.7.7 0 0 1 .558.277c.543.688 1.304 1.09 2.085 1.105a.708.708 0 0 0-.159-.122c-.171-.096-.349-.177-.537-.264-.106-.05-.211-.098-.316-.15a.721.721 0 0 1-.385-.823.752.752 0 0 1 .434-.528.789.789 0 0 1-.169.02c-.35 0-.647-.265-.707-.629a.697.697 0 0 1 .473-.794 3.201 3.201 0 0 1 1.002-.154c.381 0 1.086.067 1.528.514.237.239.361.559.361.92-.002.458-.119.82-.355 1.083.089.1.165.204.227.314.184.324.224.74.108 1.114-.112.36-.347.642-.664.798-.297.14-.626.212-.975.212Zm-.544-3.458c.031 0 .06.002.093.006.031.004.075.01.124.019.118.019.279.046.42.046a.612.612 0 0 0 .101-.007c-.027-.058-.105-.129-.366-.129-.179 0-.37.038-.504.077a.695.695 0 0 1 .132-.012Z" fill="#fff"/>
    <path d="M161.281 47.52c.304-.185.503-.516.503-1.07.004-1.23-1.705-1.279-2.501-1-.542.187-.246 1.012.293.825.348-.12 1.22-.275 1.336.282.101.497-.759.285-.98.258-.496-.058-.703.632-.265.848.288.141.583.266.866.422.356.197.647.686.013.675-.926-.016-1.757-.515-2.311-1.215-.345-.439-1.071.087-.723.525.756.959 2.443 2.062 3.755 1.424.546-.266.711-1.004.43-1.5a1.697 1.697 0 0 0-.416-.474Z" fill="#E73443"/>
    <path d="M164.628 51.618a.766.766 0 0 1-.647-.357.691.691 0 0 1-.015-.688c.143-.28.292-.56.438-.832-.12-.066-.626-.353-.76-.428a36.03 36.03 0 0 1-.345.771.697.697 0 0 1-.639.426.768.768 0 0 1-.639-.349.717.717 0 0 1-.037-.692c.163-.357.294-.648.409-.919a.715.715 0 0 1-.053-.602.78.78 0 0 1 .494-.499c.093-.256.171-.49.235-.71a.77.77 0 0 1 .75-.56c.238 0 .455.104.583.276a.66.66 0 0 1 .091.593c-.082.282-.177.571-.289.877l.527.295.368.208c.171-.35.31-.655.424-.946.109-.28.345-.449.628-.449.248 0 .488.131.63.341a.737.737 0 0 1 .07.694c-.293.753-.68 1.466-1.054 2.156-.173.322-.355.656-.523.987a.718.718 0 0 1-.646.407Z" fill="#fff"/>
    <path d="M165.793 47.588c-.167.426-.363.838-.57 1.243-.463-.251-.918-.522-1.383-.771.139-.366.265-.732.372-1.1.164-.55-.7-.691-.861-.143-.087.297-.191.595-.302.892-.385-.01-.631.54-.314.787-.157.37-.321.736-.484 1.092-.24.523.546.895.785.37.16-.35.319-.703.47-1.062.436.236.863.486 1.297.725-.194.36-.39.717-.574 1.083-.26.515.525.885.785.37.525-1.04 1.141-2.03 1.565-3.118.207-.53-.575-.904-.786-.368Z" fill="#E73443"/>
    <path d="M168.59 53.616a.71.71 0 0 1-.643-.4 1.383 1.383 0 0 1-.138-.477c-.993-.408-1.923-1.295-1.768-2.397.126-.887.763-1.417 1.703-1.417.089 0 .18.004.269.014l-.018-.05c-.096-.29.006-.588.262-.78.254-.188.556-.288.868-.288.473 0 .932.224 1.23.6.275.348.372.774.273 1.2-.12.515-.387.975-.645 1.415l-.137.235a4.836 4.836 0 0 1-.128.212 7.54 7.54 0 0 0-.252.433.771.771 0 0 1 .052.455.754.754 0 0 1-.172.363.659.659 0 0 1-.076.508.805.805 0 0 1-.68.374Zm-.769-3.255a.472.472 0 0 0-.093.008c-.099.017-.186.073-.221.142-.023.043-.021.089.006.14.118.238.364.468.672.635.068-.133.138-.26.202-.377l.122-.216c-.176-.182-.434-.332-.688-.332Zm1.277-1.066c.033.018.064.037.097.058a.586.586 0 0 1 .007-.027.339.339 0 0 0-.096-.038c-.004.005-.006.007-.008.007Z" fill="#fff"/>
    <path d="M168.43 48.349c-.467.345.079 1.018.542.675.136-.101.533.069.529.246-.002.162-.087.328-.151.476-.01.025-.023.047-.033.07-.884-.806-2.771-.954-2.986.568-.143 1.012.812 1.818 1.761 2.149-.005.189.026.374.115.55.25.5 1.067.132.817-.37-.013-.022-.019-.047-.027-.072.256-.127.316-.505.13-.707.143-.307.351-.613.463-.808.285-.5.62-1.01.75-1.572.242-1.039-1.035-1.854-1.91-1.205Zm-1.18 2.432c-.165-.335.091-.649.432-.705.455-.075.945.233 1.185.584-.071.12-.141.241-.209.362-.11.2-.232.418-.335.646-.451-.172-.88-.497-1.073-.887Z" fill="#E73443"/>
    <path d="M171.26 54.333a.749.749 0 0 1-.635-.379.704.704 0 0 1 .009-.72l.089-.153c.374-.648.76-1.315 1.074-2.003a3.893 3.893 0 0 0-.576-.14c-.436-.066-.639-.444-.614-.785.027-.37.304-.64.657-.64a.72.72 0 0 1 .114.008c1.112.169 2.06.694 2.98 1.204.122.066.242.135.364.201a.62.62 0 0 1 .322.721.788.788 0 0 1-.74.587.724.724 0 0 1-.349-.092 43.688 43.688 0 0 1-.428-.239l-.436-.243c-.343.742-.754 1.453-1.153 2.143l-.106.183a.656.656 0 0 1-.572.347Z" fill="#fff"/>
    <path d="M174.095 51.882c.468.256.957-.442.488-.698-1.037-.567-2.044-1.191-3.247-1.372-.535-.08-.603.755-.072.836.322.047.63.141.93.257-.364.86-.837 1.663-1.306 2.476-.273.47.417.933.69.457.49-.848.988-1.69 1.375-2.586.386.202.764.424 1.142.63Z" fill="#E73443"/>
    <path d="M175.456 57.286c-.288 0-.56-.16-.676-.399a.576.576 0 0 1-.021-.472c-.481-.062-.996-.222-1.343-.59-.267-.283-.395-.644-.374-1.073.047-1.072 1.124-1.937 2.17-2.641a.689.689 0 0 1 .38-.123c.289 0 .544.204.635.505a.716.716 0 0 1-.292.815c-.519.347-1.147.819-1.418 1.368-.043.087-.057.157-.037.189.042.064.265.189.827.189.186 0 .384-.015.533-.04l.023-.004.283-.332c.304-.356.618-.724.918-1.09a.64.64 0 0 1 .496-.249c.26 0 .508.169.63.426a.718.718 0 0 1-.095.773c-.277.341-.568.678-.847 1.004-.403.47-.821.954-1.201 1.449a.734.734 0 0 1-.591.295Z" fill="#fff"/>
    <path d="M177.289 53.778c-.42.515-.858 1.018-1.29 1.525a.535.535 0 0 0-.113.004c-.523.088-2.071.13-1.633-.76.3-.61.959-1.108 1.517-1.482.444-.297.047-1.008-.397-.709-.773.52-1.996 1.397-2.042 2.409-.047 1.075 1.009 1.384 1.966 1.39-.069.086-.139.169-.205.256-.324.422.397.823.719.403.651-.846 1.379-1.631 2.055-2.459.334-.407-.24-.989-.577-.577Z" fill="#E73443"/>
    <path d="M177.661 58.138a.758.758 0 0 1-.678-.45.654.654 0 0 1 .138-.722c.837-.883 1.532-1.52 2.251-2.064a.676.676 0 0 1 .407-.143c.288 0 .546.2.643.494a.703.703 0 0 1-.25.8c-.769.583-1.447 1.266-2.007 1.859a.675.675 0 0 1-.504.226Z" fill="#fff"/>
    <path d="M179.55 55.14c-.806.608-1.525 1.302-2.216 2.03-.366.386.254.927.62.54.639-.673 1.298-1.326 2.044-1.89.426-.32-.02-1.003-.448-.68Z" fill="#E73443"/>
    <path d="M176.874 59.12a.743.743 0 0 1-.468-.165 1.109 1.109 0 0 1-.198-.214.666.666 0 0 1-.213-.407.73.73 0 0 1 .168-.647.686.686 0 0 1 .508-.224.81.81 0 0 1 .293.058.36.36 0 0 1 .083.031l.025.01.027.009a.769.769 0 0 1 .271.16c.268.243.322.625.14 1a.699.699 0 0 1-.636.388Z" fill="#fff"/>
    <path d="m177.006 57.853-.044-.014-.014-.004c-.031-.01-.081-.046-.023-.007a.037.037 0 0 0-.014-.004c-.176-.093-.383-.093-.533.067a.433.433 0 0 0-.093.39.37.37 0 0 0 .132.252c.004.002.006.006.008.008l.013.015a.868.868 0 0 0 .152.17c.203.165.534.125.656-.122.105-.218.124-.474-.073-.65a.472.472 0 0 0-.167-.1Zm-.081-.026c.011.006.023.016.044.029a.643.643 0 0 0-.058-.034c.004.002.01.005.014.005Zm-.518.694c-.003-.002-.003-.002 0 0Zm.754-.387c.002 0 .002 0 0 0Z" fill="#E73443"/>
    <path d="M132.082 51.87a.738.738 0 0 1-.698-.472c-.319-.763-.339-1.532-.067-2.247-.587-.187-.911-.671-.921-1.394-.017-1.054 1.362-1.484 2.273-1.77.188-.057.349-.107.473-.155a.759.759 0 0 1 .275-.052c.352 0 .655.27.724.644a.736.736 0 0 1-.472.842l-.051.019c.277.607.634 1.17 1.008 1.762.089.14.178.28.265.42.153.245.161.53.025.777a.81.81 0 0 1-.691.424.69.69 0 0 1-.591-.345c-.089-.145-.182-.288-.273-.432-.13-.206-.262-.416-.392-.628-.358.462-.416.994-.17 1.584a.71.71 0 0 1-.051.676.802.802 0 0 1-.666.347Z" fill="#fff"/>
    <path d="m133.227 47.118.339-.128c.564-.214.242-1.096-.32-.882-.732.279-2.573.626-2.559 1.644.012.823.478 1.131 1.048 1.185-.374.699-.434 1.505-.085 2.349.232.557 1.11.237.879-.322-.354-.848-.157-1.593.489-2.183.275.47.575.927.862 1.389.321.513 1.079-.034.761-.545-.507-.817-1.052-1.613-1.414-2.507Zm-1.347.5.471-.175c.064.158.13.314.204.467-.194.06-.39.117-.589.17-.46.123-.545-.294-.086-.463Z" fill="#E73443"/>
  </g>
  <defs>
    <filter id="a" x="0" y="0" width="200" height="126.156" filterUnits="userSpaceOnUse" color-interpolation-filters="sRGB">
      <feFlood flood-opacity="0" result="BackgroundImageFix"/>
      <feColorMatrix in="SourceAlpha" values="0 0 0 0 0 0 0 0 0 0 0 0 0 0 0 0 0 0 127 0" result="hardAlpha"/>
      <feOffset dx="2" dy="2"/>
      <feGaussianBlur stdDeviation="6.5"/>
      <feColorMatrix values="0 0 0 0 0 0 0 0 0 0 0 0 0 0 0 0 0 0 0.4 0"/>
      <feBlend in2="BackgroundImageFix" result="effect1_dropShadow_485_19"/>
      <feBlend in="SourceGraphic" in2="effect1_dropShadow_485_19" result="shape"/>
    </filter>
  </defs>
</svg>
