<svg aria-hidden="true" style="position:absolute;width:0;height:0;overflow:hidden" xmlns="http://www.w3.org/2000/svg">
  <defs>
    <symbol id="icon-close-menu" viewBox="0 0 32 32">
      <path d="M31.439 3.166 28.273 0 15.719 12.552 3.167 0 .001 3.166l12.552 12.552L.001 28.272l3.166 3.166 12.552-12.554 12.554 12.554 3.166-3.166-12.554-12.554L31.439 3.166z"/>
    </symbol>
    <symbol id="icon-menu" viewBox="0 0 48 32">
      <path d="M0 5.334V0h48v5.334H0zm0 13.332h48v-5.332H0v5.332zM0 32h48v-5.334H0V32z"/>
    </symbol>
    <symbol id="icon-play" viewBox="0 0 30 32">
      <path d="M26.782 11.193c3.745 2.111 3.745 7.503 0 9.613l-18.003 10.147c-3.679 2.072-8.227-0.585-8.227-4.807v-20.295c0-4.222 4.548-6.879 8.226-4.807l18.004 10.147z"></path>
    </symbol>
    <symbol id="icon-left-slider" viewBox="0 0 17 32">
      <path d="M0.364 16.878l14.801 14.76c0.221 0.208 0.52 0.336 0.849 0.336 0.685 0 1.241-0.555 1.241-1.241 0-0.33-0.129-0.63-0.339-0.852l0.001 0.001-13.92-13.881 13.921-13.881c0.225-0.225 0.364-0.535 0.364-0.878 0-0.685-0.555-1.241-1.241-1.241-0.342 0-0.652 0.139-0.876 0.362l-14.799 14.759c-0.226 0.224-0.365 0.535-0.365 0.878s0.14 0.654 0.365 0.878l0 0z"></path>
    </symbol>
    <symbol id="icon-right-slider" viewBox="0 0 17 32">
      <path d="M16.918 15.122l-14.801-14.76c-0.221-0.208-0.52-0.336-0.849-0.336-0.685 0-1.241 0.555-1.241 1.241 0 0.33 0.129 0.63 0.339 0.852l-0.001-0.001 13.92 13.881-13.92 13.881c-0.225 0.225-0.364 0.535-0.364 0.878 0 0.685 0.555 1.24 1.24 1.24 0.342 0 0.651-0.138 0.876-0.362l14.801-14.76c0.225-0.224 0.365-0.535 0.365-0.878s-0.139-0.653-0.365-0.878l-0-0z"></path>
    </symbol>
  </defs>
</svg>
